<svg width="76" height="56" viewBox="0 0 76 56" fill="none" xmlns="http://www.w3.org/2000/svg">
<path d="M34.4158 25.9247V56.0001H6.45272C6.45272 56.0001 0 49.7053 0 32.2196C0 6.48065 19.3595 -0.653664 29.3957 0.0459199V12.6356C27.4842 12.4024 23.0877 12.7755 20.7934 16.1327C18.4991 19.49 18.8815 24.0596 19.3595 25.9247H34.4158Z" fill="#EFF7FF"/>
<path d="M76 25.9247V56.0001H48.0369C48.0369 56.0001 41.5842 49.7053 41.5842 32.2196C41.5842 6.48065 60.9437 -0.653664 70.9799 0.0459199V12.6356C69.0685 12.4024 64.6719 12.7755 62.3776 16.1327C60.0833 19.49 60.4657 24.0596 60.9437 25.9247H76Z" fill="#EFF7FF"/>
</svg>
